<svg width="40" height="40" fill="none" xmlns="http://www.w3.org/2000/svg"><g clip-path="url(#a)"><path fill-rule="evenodd" clip-rule="evenodd" d="M35.113 0A4.89 4.89 0 0 1 40 4.887v30.226A4.89 4.89 0 0 1 35.113 40h-8.318V24.928h5.203l.99-6.454h-6.193v-4.19c0-1.765.865-3.486 3.64-3.486h2.815V5.302s-2.555-.436-4.999-.436c-5.1 0-8.434 3.092-8.434 8.688v4.92h-5.67v6.454h5.67V40H4.887A4.89 4.89 0 0 1 0 35.113V4.887A4.89 4.89 0 0 1 4.887 0h30.226Z" fill="#F35B04"/></g><defs><clipPath id="a"><path fill="#fff" d="M0 0h40v40H0z"/></clipPath></defs></svg>