<svg width="40" height="40" fill="none" xmlns="http://www.w3.org/2000/svg"><g clip-path="url(#a)"><path fill-rule="evenodd" clip-rule="evenodd" d="M35.113 0A4.89 4.89 0 0 1 40 4.887v30.226A4.89 4.89 0 0 1 35.113 40H4.887A4.89 4.89 0 0 1 0 35.113V4.887A4.89 4.89 0 0 1 4.887 0h30.226ZM12.536 33.069V15.434H6.674V33.07h5.862Zm21.136 0V22.956c0-5.416-2.892-7.936-6.749-7.936-3.11 0-4.502 1.71-5.282 2.911v-2.497H15.78c.078 1.655 0 17.635 0 17.635h5.86V23.22c0-.527.039-1.054.194-1.43.423-1.053 1.388-2.144 3.007-2.144 2.12 0 2.97 1.618 2.97 3.988v9.435h5.86ZM9.644 6.93c-2.005 0-3.316 1.32-3.316 3.047 0 1.693 1.27 3.047 3.239 3.047h.038c2.044 0 3.316-1.354 3.316-3.047-.038-1.726-1.269-3.043-3.277-3.047Z" fill="#F35B04"/></g><defs><clipPath id="a"><path fill="#fff" d="M0 0h40v40H0z"/></clipPath></defs></svg>