<svg width="40" height="40" fill="none" xmlns="http://www.w3.org/2000/svg"><g clip-path="url(#a)"><path fill-rule="evenodd" clip-rule="evenodd" d="M35.113 0A4.89 4.89 0 0 1 40 4.887v30.226A4.89 4.89 0 0 1 35.113 40H4.887A4.89 4.89 0 0 1 0 35.113V4.887A4.89 4.89 0 0 1 4.887 0h30.226ZM15.275 33.167c10.62 0 16.427-8.8 16.427-16.427 0-.251 0-.503-.012-.742a11.83 11.83 0 0 0 2.886-2.993c-1.03.455-2.144.766-3.317.91a5.77 5.77 0 0 0 2.538-3.197 11.69 11.69 0 0 1-3.663 1.4 5.746 5.746 0 0 0-4.215-1.82 5.774 5.774 0 0 0-5.771 5.772c0 .455.048.898.156 1.317-4.802-.24-9.052-2.538-11.902-6.035a5.791 5.791 0 0 0-.778 2.898c0 2 1.018 3.771 2.574 4.801a5.672 5.672 0 0 1-2.61-.718v.072a5.78 5.78 0 0 0 4.634 5.663 5.756 5.756 0 0 1-1.52.203c-.372 0-.731-.036-1.09-.107a5.765 5.765 0 0 0 5.387 4.01 11.605 11.605 0 0 1-7.171 2.467c-.467 0-.922-.024-1.377-.084a16.085 16.085 0 0 0 8.824 2.61Z" fill="#F35B04"/></g><defs><clipPath id="a"><path fill="#fff" d="M0 0h40v40H0z"/></clipPath></defs></svg>