<svg width="40" height="40" fill="none" xmlns="http://www.w3.org/2000/svg"><g clip-path="url(#a)"><path fill-rule="evenodd" clip-rule="evenodd" d="M35.113 0A4.89 4.89 0 0 1 40 4.887v30.226A4.89 4.89 0 0 1 35.113 40H4.887A4.89 4.89 0 0 1 0 35.113V4.887A4.89 4.89 0 0 1 4.887 0h30.226Zm-1.638 13.721a3.521 3.521 0 0 0-2.487-2.486C28.795 10.647 20 10.647 20 10.647s-8.795 0-10.989.588a3.522 3.522 0 0 0-2.486 2.486c-.588 2.194-.588 6.77-.588 6.77s0 4.576.588 6.77a3.523 3.523 0 0 0 2.486 2.486c2.194.587 10.989.587 10.989.587s8.795 0 10.988-.587a3.522 3.522 0 0 0 2.487-2.487c.587-2.193.587-6.77.587-6.77s0-4.575-.587-6.769ZM17.187 24.71v-8.438l7.307 4.219-7.307 4.219Z" fill="#F35B04"/></g><defs><clipPath id="a"><path fill="#fff" d="M0 0h40v40H0z"/></clipPath></defs></svg>