<svg width="28" height="28" viewBox="0 0 28 28" fill="none" xmlns="http://www.w3.org/2000/svg">
<path d="M1.40002 5.6C1.40002 4.06 2.66002 2.8 4.20002 2.8H23.8C24.5426 2.8 25.2548 3.095 25.7799 3.6201C26.305 4.1452 26.6 4.85739 26.6 5.6V25.2C26.6 25.9426 26.305 26.6548 25.7799 27.1799C25.2548 27.705 24.5426 28 23.8 28H4.20002C3.45742 28 2.74523 27.705 2.22013 27.1799C1.69502 26.6548 1.40002 25.9426 1.40002 25.2V5.6ZM4.20002 8.4V25.2H23.8V8.4H4.20002ZM7.00002 0H9.80002V2.8H7.00002V0ZM18.2 0H21V2.8H18.2V0ZM7.00002 12.6H9.80002V15.4H7.00002V12.6ZM7.00002 18.2H9.80002V21H7.00002V18.2ZM12.6 12.6H15.4V15.4H12.6V12.6ZM12.6 18.2H15.4V21H12.6V18.2ZM18.2 12.6H21V15.4H18.2V12.6ZM18.2 18.2H21V21H18.2V18.2Z" fill="#F35B04"/>
</svg>
