<svg width="20" height="28" viewBox="0 0 20 28" fill="none" xmlns="http://www.w3.org/2000/svg">
<path d="M10 28C10 28 0.199997 15.218 0.199997 9.8C0.199997 8.51305 0.453482 7.23869 0.945978 6.0497C1.43847 4.86071 2.16034 3.78037 3.07035 2.87035C3.98036 1.96034 5.06071 1.23848 6.2497 0.745981C7.43869 0.253484 8.71304 0 10 0C11.287 0 12.5613 0.253484 13.7503 0.745981C14.9393 1.23848 16.0196 1.96034 16.9296 2.87035C17.8397 3.78037 18.5615 4.86071 19.054 6.0497C19.5465 7.23869 19.8 8.51305 19.8 9.8C19.8 15.218 10 28 10 28ZM10 12.6C10.7426 12.6 11.4548 12.305 11.9799 11.7799C12.505 11.2548 12.8 10.5426 12.8 9.8C12.8 9.05739 12.505 8.3452 11.9799 7.8201C11.4548 7.295 10.7426 7 10 7C9.25739 7 8.5452 7.295 8.0201 7.8201C7.495 8.3452 7.2 9.05739 7.2 9.8C7.2 10.5426 7.495 11.2548 8.0201 11.7799C8.5452 12.305 9.25739 12.6 10 12.6Z" fill="#F35B04"/>
</svg>
